<svg width="250" height="250" viewBox="0 0 250 250" fill="none" xmlns="http://www.w3.org/2000/svg">
<rect width="250" height="250" fill="white"/>
<g clip-path="url(#clip0_5948_73249)">
<path d="M114.635 143.79C111.732 143.79 108.915 143.409 106.187 142.647C103.493 141.851 101.324 140.829 99.6797 139.583L102.566 133.246C104.14 134.388 106.012 135.306 108.181 135.999C110.35 136.691 112.519 137.037 114.688 137.037C117.102 137.037 118.886 136.691 120.04 135.999C121.195 135.271 121.772 134.319 121.772 133.142C121.772 132.276 121.422 131.566 120.723 131.012C120.058 130.424 119.183 129.956 118.099 129.61C117.049 129.263 115.615 128.883 113.796 128.467C110.997 127.809 108.706 127.151 106.921 126.493C105.137 125.835 103.598 124.779 102.303 123.325C101.044 121.87 100.414 119.931 100.414 117.507C100.414 115.395 100.992 113.491 102.146 111.794C103.301 110.062 105.032 108.695 107.341 107.69C109.685 106.686 112.536 106.184 115.895 106.184C118.239 106.184 120.53 106.461 122.769 107.015C125.008 107.569 126.967 108.366 128.646 109.404L126.023 115.793C122.629 113.889 119.236 112.937 115.842 112.937C113.463 112.937 111.697 113.317 110.542 114.079C109.423 114.841 108.863 115.845 108.863 117.092C108.863 118.338 109.51 119.273 110.805 119.897C112.134 120.485 114.146 121.074 116.839 121.663C119.638 122.321 121.93 122.979 123.714 123.636C125.498 124.294 127.02 125.333 128.279 126.753C129.574 128.173 130.221 130.095 130.221 132.518C130.221 134.596 129.626 136.501 128.437 138.232C127.282 139.929 125.533 141.279 123.189 142.284C120.845 143.288 117.994 143.79 114.635 143.79Z" fill="black"/>
<path d="M169.457 143.167L169.404 121.351L158.594 139.323H154.764L144.006 121.819V143.167H136.03V106.807H143.061L156.81 129.402L170.349 106.807H177.328L177.433 143.167H169.457Z" fill="black"/>
<path d="M186.148 106.807H194.649V143.167H186.148V106.807Z" fill="black"/>
<path d="M220.947 143.79C217.203 143.79 213.81 142.993 210.766 141.4C207.758 139.773 205.379 137.54 203.629 134.7C201.915 131.826 201.058 128.588 201.058 124.987C201.058 121.386 201.915 118.165 203.629 115.326C205.379 112.452 207.758 110.218 210.766 108.625C213.81 106.998 217.221 106.184 220.999 106.184C224.183 106.184 227.051 106.738 229.605 107.846C232.194 108.954 234.363 110.547 236.112 112.625L230.655 117.611C228.171 114.772 225.092 113.352 221.419 113.352C219.145 113.352 217.116 113.854 215.332 114.858C213.547 115.828 212.148 117.196 211.133 118.962C210.154 120.728 209.664 122.736 209.664 124.987C209.664 127.238 210.154 129.246 211.133 131.012C212.148 132.778 213.547 134.163 215.332 135.168C217.116 136.137 219.145 136.622 221.419 136.622C225.092 136.622 228.171 135.185 230.655 132.311L236.112 137.297C234.363 139.409 232.194 141.02 229.605 142.128C227.016 143.236 224.13 143.79 220.947 143.79Z" fill="black"/>
<path d="M33.7771 143.79C30.0338 143.79 26.6404 142.993 23.5967 141.4C20.5881 139.773 18.2092 137.54 16.46 134.7C14.7458 131.826 13.8887 128.588 13.8887 124.987C13.8887 121.386 14.7458 118.165 16.46 115.326C18.2092 112.452 20.5881 110.218 23.5967 108.625C26.6404 106.998 30.0513 106.184 33.8296 106.184C37.0131 106.184 39.8818 106.738 42.4356 107.846C45.0245 108.954 47.1935 110.547 48.9427 112.625L43.4852 117.611C41.0013 114.772 37.9227 113.352 34.2494 113.352C31.9754 113.352 29.9463 113.854 28.1622 114.858C26.378 115.828 24.9786 117.196 23.9641 118.962C22.9845 120.728 22.4947 122.736 22.4947 124.987C22.4947 127.238 22.9845 129.246 23.9641 131.012C24.9786 132.778 26.378 134.163 28.1622 135.168C29.9463 136.137 31.9754 136.622 34.2494 136.622C37.9227 136.622 41.0013 135.185 43.4852 132.311L48.9427 137.297C47.1935 139.409 45.0245 141.02 42.4356 142.128C39.8468 143.236 36.9606 143.79 33.7771 143.79Z" fill="black"/>
<path d="M62.5383 104.238L64.3582 103.56C58.7454 99.1708 55.3134 96.82 53.4978 98.377C51.53 100.133 53.207 105.28 56.8091 111.703C57.6753 110.642 58.6484 109.662 59.7178 108.782C57.2206 103.378 56.8646 100.133 62.5383 104.238Z" fill="url(#paint0_linear_5948_73249)"/>
<path d="M93.5568 119.741C90.6829 108.56 79.2219 101.796 67.9579 104.633C64.8298 105.421 62.0459 106.866 59.7178 108.782C58.6484 109.662 57.6753 110.642 56.8091 111.703C62.6142 122.054 73.4192 135.717 82.0259 143.836C83.1882 143.303 84.2846 142.673 85.3074 141.957C92.2261 137.116 95.7759 128.374 93.5568 119.741Z" fill="url(#paint1_linear_5948_73249)"/>
<path d="M94.0696 150.184C95.2609 148.784 94.7744 145.167 91.6185 138.924L90.6353 140.271C92.6829 146.55 90.5059 145.802 85.3074 141.957C84.2846 142.673 83.1882 143.303 82.0259 143.836C87.6457 149.137 92.3282 152.075 94.0696 150.184Z" fill="url(#paint2_linear_5948_73249)"/>
<path fill-rule="evenodd" clip-rule="evenodd" d="M77.8431 145.245C60.6521 126.438 52.0862 118.747 52.1292 125.775C52.1934 127.179 52.4022 128.597 52.7661 130.013C55.5956 141.021 66.7491 147.748 77.8431 145.245Z" fill="url(#paint3_linear_5948_73249)"/>
</g>
<defs>
<linearGradient id="paint0_linear_5948_73249" x1="61.5513" y1="88.648" x2="80.2553" y2="153.966" gradientUnits="userSpaceOnUse">
<stop stop-color="#FF006B"/>
<stop offset="1" stop-color="#FFE600"/>
</linearGradient>
<linearGradient id="paint1_linear_5948_73249" x1="61.5513" y1="88.648" x2="80.2553" y2="153.966" gradientUnits="userSpaceOnUse">
<stop stop-color="#FF006B"/>
<stop offset="1" stop-color="#FFE600"/>
</linearGradient>
<linearGradient id="paint2_linear_5948_73249" x1="61.5513" y1="88.648" x2="80.2553" y2="153.966" gradientUnits="userSpaceOnUse">
<stop stop-color="#FF006B"/>
<stop offset="1" stop-color="#FFE600"/>
</linearGradient>
<linearGradient id="paint3_linear_5948_73249" x1="61.5513" y1="88.648" x2="80.2553" y2="153.966" gradientUnits="userSpaceOnUse">
<stop stop-color="#FF006B"/>
<stop offset="1" stop-color="#FFE600"/>
</linearGradient>
<clipPath id="clip0_5948_73249">
<rect width="250" height="69" fill="white" transform="translate(0 90)"/>
</clipPath>
</defs>
</svg>
