<svg width="570" height="570" viewBox="0 0 570 570" fill="none" xmlns="http://www.w3.org/2000/svg">
<rect width="570" height="570" fill="black"/>
<path fill-rule="evenodd" clip-rule="evenodd" d="M85.3586 324.666L85.3755 324.661L85.3924 324.657C89.2077 323.578 92.388 322.192 94.7795 320.407C97.0662 318.7 98.9604 316.661 100.434 314.292C102.813 310.464 103.996 306.201 103.996 301.572C103.996 297.296 103.184 293.412 101.469 290C99.8258 286.732 97.7044 284.088 95.0523 282.199C92.6761 280.443 90.0943 278.947 87.3129 277.71C84.6521 276.43 82.1095 275.475 79.6915 274.874C77.6701 274.293 76.0223 273.699 74.7216 273.101C74.4482 272.959 74.2696 272.837 74.1574 272.748C74.3623 272.666 74.7766 272.545 75.494 272.446C76.3248 272.331 77.4143 272.265 78.7892 272.265C81.2058 272.265 84.5078 273.092 88.8032 275.013L88.8357 275.028L88.8684 275.041C89.6285 275.358 90.272 275.612 90.7802 275.791C91.0323 275.879 91.2847 275.962 91.5201 276.025C91.6865 276.07 92.0895 276.177 92.5419 276.177C94.5935 276.177 96.0878 274.825 97.0641 273.557C98.0881 272.226 99.0013 270.406 99.8479 268.255C101.635 263.885 102.581 259.679 102.581 255.666C102.581 254.144 101.821 252.958 101.014 252.137C100.225 251.334 99.1932 250.667 98.0709 250.092C95.6723 248.76 91.8861 247.752 87.0473 246.93C81.9905 246.002 76.0605 245.551 69.2836 245.551C60.0333 245.551 52.5819 247.512 47.4144 251.919C42.1534 256.405 39.7282 263.015 39.7282 271.208C39.7282 275.184 40.5579 278.84 42.2805 282.108L42.2943 282.133C43.9586 285.213 46.0969 287.702 48.7427 289.498C51.0853 291.087 53.5959 292.526 56.2716 293.816L56.2965 293.828C59.0144 295.105 61.5617 296.116 63.9333 296.848L63.9702 296.859L64.0074 296.869C66.0693 297.442 67.6784 298.112 68.8918 298.842L68.9326 298.867L68.9742 298.89C69.4306 299.143 69.6561 299.343 69.7541 299.45C69.7513 299.474 69.748 299.493 69.745 299.508C69.7406 299.529 69.7364 299.542 69.7335 299.55C69.627 299.587 69.3909 299.657 68.9654 299.724C68.2794 299.831 67.3198 299.897 66.0477 299.897C63.834 299.897 60.187 299.106 54.906 297.269C52.2395 296.341 50.1932 295.641 48.7746 295.171C48.0678 294.937 47.4996 294.755 47.0816 294.629C46.8753 294.566 46.6816 294.51 46.5153 294.468C46.4335 294.447 46.3329 294.422 46.2269 294.401L46.2212 294.4C46.1575 294.387 45.9134 294.339 45.6209 294.339C43.4369 294.339 42.0214 295.901 41.207 297.231C40.3506 298.631 39.6768 300.516 39.1121 302.707C37.9791 307.033 37.4023 311.254 37.4023 315.364C37.4023 316.941 38.2079 318.17 39.0444 319.022C39.8852 319.878 40.9995 320.609 42.2343 321.256C44.8405 322.623 48.8533 323.744 54.0201 324.712C59.322 325.707 64.8832 326.2 70.6993 326.2C76.5523 326.2 81.4661 325.712 85.3586 324.666ZM137.397 303.358V281.04C137.864 283.049 138.151 286.725 138.151 292.308C138.151 297.358 137.878 300.999 137.397 303.358ZM196.621 324.641L196.642 324.638L196.663 324.636C198.662 324.39 200.327 324.092 201.549 323.706C202.141 323.519 202.815 323.256 203.397 322.847C203.928 322.474 204.956 321.558 204.956 319.996V269.252C204.956 267.973 204.645 266.725 203.94 265.614C203.243 264.515 202.264 263.709 201.163 263.13C200.254 262.652 199.214 262.304 198.07 262.063C199.006 261.702 199.87 261.269 200.655 260.755C203.878 258.646 205.461 255.396 205.461 251.446C205.461 249.356 205.079 247.392 204.166 245.681C203.245 243.953 201.866 242.641 200.134 241.75C197.076 240.08 193.097 239.375 188.445 239.375C183.55 239.375 179.403 240.165 176.404 242.142C173.198 244.254 171.631 247.505 171.631 251.446C171.631 255.396 173.214 258.646 176.437 260.755C178.125 261.859 180.176 262.593 182.519 263.025C181.486 263.321 180.472 263.665 179.476 264.055C177.489 264.815 175.786 265.658 174.529 266.64C173.318 267.586 172.036 269.058 172.036 271.105V319.996C172.036 321.118 172.419 322.174 173.168 323.026C173.865 323.819 174.755 324.297 175.595 324.599L175.684 324.631L175.774 324.657C176.672 324.91 177.873 325.051 179.218 325.139C180.614 325.23 182.346 325.274 184.4 325.274C188.603 325.274 192.677 325.063 196.621 324.641ZM265.244 324.641L265.268 324.638L265.292 324.635C267.257 324.389 268.901 324.091 270.109 323.702C270.695 323.514 271.365 323.247 271.943 322.834C272.48 322.451 273.477 321.536 273.477 319.996V288.294C273.477 278.867 272.278 271.501 269.458 266.699C266.404 261.306 260.635 259.034 253.326 259.034C250.731 259.034 248.294 259.374 246.037 260.087L246.021 260.092L246.005 260.097C242.643 261.206 239.811 262.882 237.591 265.147C237 263.407 235.796 262.079 234.16 261.223C232.394 260.3 230.21 259.961 227.843 259.961C223.221 259.961 218.79 260.734 214.567 262.29L214.553 262.295C212.535 263.052 210.814 263.881 209.547 264.831C208.36 265.722 206.984 267.172 206.984 269.252V319.996C206.984 321.166 207.41 322.241 208.195 323.085C208.919 323.862 209.834 324.324 210.69 324.615L210.757 324.637L210.824 324.657C211.722 324.91 212.923 325.051 214.268 325.139C215.664 325.23 217.396 325.274 219.45 325.274C223.653 325.274 227.695 325.063 231.575 324.64L231.597 324.638L231.618 324.635C233.584 324.389 235.227 324.091 236.435 323.702C237.021 323.514 237.691 323.247 238.27 322.834C238.806 322.451 239.803 321.536 239.803 319.996V279.581C239.971 280.223 240.141 280.955 240.315 281.78L240.335 281.873L240.36 281.963C240.505 282.48 240.658 284.099 240.658 287.265V319.996C240.658 321.118 241.042 322.174 241.791 323.026C242.488 323.819 243.378 324.297 244.218 324.599L244.306 324.631L244.397 324.657C245.295 324.91 246.495 325.051 247.841 325.139C249.236 325.23 250.969 325.274 253.023 325.274C257.226 325.274 261.3 325.063 265.244 324.641ZM279.614 322.672L279.635 322.682L279.657 322.691C285.374 325.11 294.022 326.2 305.288 326.2C314.931 326.2 322.656 324.492 328.034 320.646C333.589 316.674 336.26 310.7 336.26 303.219C336.26 298.767 335.161 294.845 332.776 291.654C330.775 288.895 328.287 286.861 325.322 285.646C327.181 285.641 328.559 284.327 329.376 283.384C330.331 282.283 331.296 280.763 332.279 278.941C334.288 275.215 335.451 271.651 335.451 268.326C335.451 265.396 333.149 263.555 331.039 262.442C329.645 261.692 327.949 261.079 326.015 260.568C324.037 260.028 321.403 259.635 318.195 259.356C314.965 259 310.992 258.829 306.3 258.829C301.424 258.829 296.935 259.44 292.858 260.699L292.845 260.703C289.006 261.911 285.877 263.337 283.674 265.081L283.654 265.097L283.634 265.113C281.503 266.865 279.866 269.129 278.698 271.825L278.69 271.843L278.682 271.861C277.709 274.196 277.041 276.285 276.861 278.009C276.709 279.407 276.643 281.455 276.643 284.074C276.643 287.149 277.467 290.051 279.065 292.734L279.075 292.751L279.085 292.767C280.675 295.356 282.743 297.337 285.313 298.558C285.589 298.688 285.866 298.816 286.146 298.941C285.694 298.795 285.285 298.673 284.925 298.58C284.541 298.482 283.985 298.353 283.446 298.353C281.446 298.353 280.068 299.825 279.282 300.872C278.377 302.079 277.514 303.732 276.671 305.699C274.966 309.676 274.014 313.367 274.014 316.702C274.014 318.464 275.065 319.733 275.976 320.518C276.929 321.339 278.193 322.042 279.614 322.672ZM300.03 302.882C297.875 302.882 294.963 302.252 291.206 300.803L291.19 300.796C291.539 300.9 291.891 300.999 292.246 301.095L292.265 301.1C294.734 301.746 297.064 302.187 299.25 302.409C300.236 302.51 301.09 302.661 301.824 302.85C301.3 302.871 300.703 302.882 300.03 302.882ZM393.753 249.157L393.738 249.149C388.846 246.619 380.521 245.551 369.332 245.551C359.555 245.551 352.064 245.961 346.962 246.824C344.438 247.25 342.291 247.82 340.704 248.624C339.228 249.373 337.35 250.813 337.35 253.298V319.481C337.35 320.565 337.665 321.627 338.355 322.536C339.017 323.408 339.897 323.973 340.777 324.342C341.718 324.736 342.882 324.949 344.094 325.078C345.352 325.212 346.862 325.274 348.602 325.274H370.748C375.048 325.274 378.806 325.135 382.009 324.851L382.028 324.85L382.047 324.848C389.625 324.069 395.695 322.163 399.865 318.8C404.821 314.827 407.079 308.815 407.079 301.366C407.079 295.278 406.03 290.232 403.276 286.977C402.132 285.625 400.845 284.494 399.424 283.587C400.114 282.853 400.753 282.023 401.344 281.123C403.619 277.764 404.551 273.081 404.551 267.503C404.551 264.532 404.187 261.819 403.398 259.41L403.39 259.387L403.382 259.363C401.866 254.99 398.481 251.638 393.753 249.157ZM372.4 267.149L372.455 267.223L372.515 267.293C372.822 267.649 373.249 268.553 373.249 270.59C373.249 272.654 372.855 273.689 372.511 274.156C372.297 274.446 371.954 274.734 371.079 274.777V266.501H371.557L371.563 266.501C371.641 266.501 371.911 266.498 372.4 267.149ZM372.4 296.69L372.455 296.763L372.515 296.833C372.822 297.189 373.249 298.093 373.249 300.131C373.249 302.194 372.855 303.23 372.511 303.696C372.297 303.986 371.954 304.275 371.079 304.318V296.042H371.557L371.563 296.042C371.641 296.041 371.911 296.039 372.4 296.69ZM431.747 324.64L431.768 324.638L431.79 324.635C433.755 324.389 435.399 324.091 436.607 323.702C437.193 323.514 437.863 323.247 438.441 322.834C438.978 322.451 439.975 321.536 439.975 319.996V289.941C439.975 289.504 440.025 289.223 440.075 289.051C440.11 289.042 440.149 289.032 440.193 289.021C440.634 288.917 441.339 288.837 442.375 288.837C444.378 288.837 447.071 289.28 450.522 290.275C452.324 290.794 453.791 291.192 454.907 291.462C455.896 291.702 456.923 291.925 457.644 291.925C459.504 291.925 460.982 290.969 462.038 289.68C463.037 288.459 463.759 286.839 464.314 285.04C465.439 281.599 466.163 278.345 466.456 275.289C466.73 272.431 466.874 270.032 466.874 268.12C466.874 265.378 465.722 263.067 463.601 261.389C461.404 259.595 458.081 259.034 454.408 259.034C450.356 259.034 446.363 260.087 442.456 262.11C440.652 263.012 439.054 264.06 437.731 265.273C437.151 263.402 435.853 262.025 434.126 261.17C432.343 260.287 430.13 259.961 427.712 259.961C423.013 259.961 418.589 260.771 414.468 262.419L414.452 262.426C412.511 263.216 410.865 264.052 409.656 264.969C408.569 265.794 407.156 267.202 407.156 269.252V319.996C407.156 321.166 407.582 322.241 408.367 323.085C409.091 323.862 410.006 324.324 410.862 324.615L410.929 324.637L410.996 324.657C411.894 324.91 413.094 325.051 414.44 325.139C415.836 325.23 417.568 325.274 419.622 325.274C423.824 325.274 427.867 325.063 431.747 324.64ZM475.925 266.168L475.916 266.175C468.7 271.623 465.397 280.496 465.397 292C465.397 304.692 468.536 314.264 475.72 319.579C478.985 322.068 482.627 323.805 486.621 324.784C490.532 325.742 495.109 326.2 500.312 326.2C510.577 326.2 519.073 323.452 525.497 317.674L525.511 317.662C532.063 311.69 535.126 302.961 535.126 292C535.126 286.657 534.532 281.934 533.281 277.884C532.067 273.891 530.439 270.558 528.296 268.047C526.214 265.526 523.47 263.606 520.175 262.233C517.078 260.914 513.979 260.054 510.883 259.676C507.891 259.243 504.359 259.034 500.312 259.034C490.585 259.034 482.381 261.334 475.925 266.168ZM533.281 277.884L533.279 277.879L530.649 278.722L533.283 277.893L533.281 277.884ZM477.357 317.32L475.702 319.566L475.72 319.579L475.738 319.592L477.357 317.32ZM500.331 306.004C500.334 306.009 500.331 306.006 500.324 305.993L500.331 306.004ZM500.211 305.661C500.237 305.661 500.262 305.66 500.284 305.66C500.303 305.608 500.325 305.547 500.348 305.478C500.355 305.457 500.362 305.435 500.369 305.412C500.545 304.863 500.737 304.03 500.928 302.86L500.934 302.823L500.942 302.786C501.368 300.554 501.599 297.66 501.599 294.058C501.599 290.312 501.497 287.545 501.31 285.701L501.305 285.65L501.301 285.599C501.17 283.595 500.981 282.213 500.771 281.358L500.751 281.277L500.736 281.195C500.576 280.327 500.376 279.876 500.254 279.68L500.237 279.657C500.203 279.741 500.162 279.85 500.116 279.988C499.923 280.565 499.707 281.432 499.482 282.64L499.48 282.654C499.058 284.859 498.822 288.181 498.822 292.72C498.822 297.259 499.058 300.581 499.48 302.786C499.705 303.968 499.916 304.829 500.103 305.412C500.133 305.507 500.161 305.59 500.187 305.661L500.211 305.661ZM500.341 279.436C500.341 279.436 500.338 279.441 500.333 279.449C500.338 279.439 500.341 279.436 500.341 279.436Z" fill="#863200"/>
<path fill-rule="evenodd" clip-rule="evenodd" d="M170.863 280.591C170.776 278.738 170.354 276.491 169.672 273.914C169.015 271.108 168.035 268.654 166.656 266.654C165.261 264.461 163.187 262.713 160.631 261.331C157.903 259.786 154.881 259.034 151.628 259.034C148.663 259.034 145.953 259.399 143.539 260.186C141.315 260.846 139.388 261.671 137.902 262.739L137.87 262.762L137.838 262.787C136.913 263.493 136.015 264.327 135.141 265.275C135.09 265.087 135.04 264.913 134.991 264.752C134.894 264.435 134.738 263.951 134.505 263.537C134.072 262.764 133.436 262.232 132.908 261.873C132.351 261.496 131.71 261.174 131.037 260.893C129.414 260.212 127.418 259.961 125.235 259.961C120.535 259.961 116.112 260.771 111.99 262.42C110.006 263.213 108.315 264.073 107.072 265.044C105.903 265.958 104.578 267.412 104.578 269.458V334.921C104.578 336.194 105.101 337.32 105.996 338.14C106.782 338.859 107.746 339.25 108.629 339.481C110.435 340.015 113.508 340.198 117.448 340.198C121.657 340.198 125.223 340.079 129.691 339.46C134.159 338.841 134.607 338.775 137.268 337.788C138.478 337.339 138.028 332.676 137.785 327.887C137.712 326.444 137.657 324.99 137.673 323.636C138.505 323.978 140.027 324.487 140.823 324.759C166.153 333.414 172.751 307.288 170.863 280.591ZM107.336 269.458V334.921C107.336 335.813 108.01 336.43 109.359 336.773C110.707 337.185 113.404 337.391 117.449 337.391C121.561 337.391 125.538 337.151 129.381 336.67C130.325 336.571 131.155 336.462 131.872 336.342C131.897 336.338 131.922 336.334 131.947 336.33C134.146 335.956 135.246 335.487 135.246 334.921L135.246 331.518L135.246 323.29L133.83 314.026H134.639L134.741 315.055C134.802 315.382 134.899 315.719 135.033 316.067C135.489 317.253 136.37 318.563 137.673 319.996C137.616 319.934 137.56 319.872 137.505 319.81C136.293 318.449 135.469 317.202 135.033 316.067C134.899 315.719 134.802 315.382 134.741 315.055L134.639 314.026H133.83L135.246 323.29V334.921C135.246 335.487 134.146 335.956 131.947 336.33C131.922 336.334 131.897 336.338 131.872 336.342V336.342C131.155 336.462 130.325 336.571 129.381 336.67C125.538 337.151 121.561 337.391 117.449 337.391C113.404 337.391 110.707 337.185 109.359 336.773C108.01 336.43 107.336 335.813 107.336 334.921V269.458C107.336 268.017 109.224 266.542 112.999 265.032C116.774 263.523 120.853 262.768 125.235 262.768C127.257 262.768 128.842 263.008 129.988 263.488C131.134 263.969 131.842 264.449 132.111 264.929C132.145 264.989 132.182 265.074 132.224 265.183C132.511 265.949 132.979 267.923 133.628 271.105L133.589 270.913C133.355 269.772 133.145 268.791 132.959 267.97C132.645 266.583 132.4 265.655 132.224 265.183C132.182 265.074 132.145 264.989 132.111 264.929C131.842 264.449 131.134 263.969 129.988 263.488C128.842 263.008 127.257 262.768 125.235 262.768C120.853 262.768 116.774 263.523 112.999 265.032C109.224 266.542 107.336 268.017 107.336 269.458ZM133.628 271.105H134.437C134.45 271.047 134.466 270.987 134.487 270.924C134.665 270.378 135.146 269.612 135.93 268.626C136.033 268.496 136.143 268.361 136.257 268.223C137.336 266.919 138.415 265.856 139.493 265.032C140.639 264.209 142.257 263.488 144.347 262.871C146.437 262.184 148.864 261.841 151.628 261.841C154.459 261.841 157.021 262.493 159.313 263.797C161.606 265.032 163.291 266.507 164.37 268.223C165.516 269.87 166.392 271.997 166.999 274.605C167.673 277.143 168.044 279.202 168.111 280.78C168.246 282.29 168.313 284.52 168.313 287.471C168.313 286.293 168.302 285.231 168.281 284.283C168.248 282.855 168.192 281.688 168.111 280.78C168.044 279.202 167.673 277.143 166.999 274.605C166.392 271.997 165.516 269.87 164.37 268.223C163.291 266.507 161.606 265.032 159.313 263.797C157.021 262.493 154.459 261.841 151.628 261.841C148.864 261.841 146.437 262.184 144.347 262.871C142.257 263.488 140.639 264.209 139.493 265.032C138.415 265.856 137.336 266.919 136.257 268.223C135.179 269.527 134.572 270.487 134.437 271.105M168.313 287.471C168.313 284.52 168.246 282.29 168.111 280.78C168.192 281.688 168.248 282.855 168.281 284.283C168.302 285.231 168.313 286.293 168.313 287.471ZM137.673 319.996C136.37 318.563 135.489 317.253 135.033 316.067C135.469 317.202 136.293 318.449 137.505 319.81C137.56 319.872 137.616 319.934 137.673 319.996ZM135.246 334.921V323.29L135.246 331.518L135.246 334.921ZM137.397 281.04V303.358C137.878 300.999 138.151 297.358 138.151 292.308C138.151 286.725 137.864 283.049 137.397 281.04Z" fill="#863200"/>
<path d="M90.6212 307.57C88.5987 309.079 85.7673 310.349 82.1269 311.378C78.5538 312.339 73.9022 312.819 68.1719 312.819C62.509 312.819 57.1158 312.339 51.9923 311.378C46.8687 310.417 43.1946 309.354 40.9699 308.187C38.7452 307.021 37.6328 305.889 37.6328 304.791C37.6328 300.948 38.1721 296.968 39.2508 292.851C40.3294 288.665 41.6103 286.572 43.0934 286.572C43.3631 286.572 46.1608 287.499 51.4866 289.351C56.8124 291.204 60.8236 292.13 63.5203 292.13C66.2169 292.13 67.9697 291.856 68.7786 291.307C69.5876 290.689 69.9921 289.832 69.9921 288.734C69.9921 287.636 69.2505 286.675 67.7674 285.852C66.2843 284.96 64.4304 284.205 62.2057 283.587C59.981 282.901 57.554 281.94 54.9248 280.705C52.363 279.47 49.9698 278.098 47.7451 276.588C45.5204 275.079 43.6665 272.951 42.1833 270.207C40.7002 267.393 39.9586 264.202 39.9586 260.634C39.9586 245.401 48.8912 237.784 66.7562 237.784C73.4303 237.784 79.1943 238.23 84.0482 239.122C88.9021 239.946 92.3065 240.906 94.2616 242.004C96.284 243.033 97.2953 244.063 97.2953 245.092C97.2953 248.66 96.4526 252.503 94.7672 256.62C93.1492 260.737 91.565 262.796 90.0144 262.796C89.7448 262.796 88.8684 262.487 87.3852 261.869C82.9358 259.879 79.228 258.884 76.2617 258.884C73.3629 258.884 71.3741 259.159 70.2955 259.708C69.2843 260.257 68.7786 261.115 68.7786 262.281C68.7786 263.379 69.5202 264.305 71.0033 265.06C72.4865 265.746 74.3067 266.398 76.464 267.016C78.6887 267.565 81.0819 268.457 83.6437 269.692C86.2729 270.858 88.6998 272.265 90.9245 273.912C93.1492 275.49 95.0032 277.755 96.4863 280.705C97.9694 283.656 98.711 287.087 98.711 290.998C98.711 295.115 97.6661 298.855 95.5762 302.217C94.2953 304.276 92.6436 306.06 90.6212 307.57Z" fill="url(#paint0_linear_1372_1308)"/>
<path d="M104.808 324.347V258.884C104.808 257.443 106.696 255.968 110.471 254.459C114.247 252.949 118.325 252.194 122.707 252.194C124.73 252.194 126.314 252.434 127.46 252.915C128.606 253.395 129.314 253.875 129.583 254.356C129.853 254.836 130.359 256.895 131.1 260.531H131.909C132.044 259.914 132.651 258.953 133.73 257.649C134.808 256.346 135.887 255.282 136.965 254.459C138.111 253.635 139.729 252.915 141.819 252.297C143.909 251.611 146.336 251.268 149.1 251.268C151.932 251.268 154.493 251.92 156.786 253.223C159.078 254.459 160.763 255.934 161.842 257.649C162.988 259.296 163.864 261.423 164.471 264.031C165.145 266.57 165.516 268.628 165.583 270.207C165.718 271.716 165.785 273.946 165.785 276.897C165.785 279.779 165.684 282.661 165.482 285.543C165.28 288.356 164.909 291.238 164.37 294.189C163.83 297.14 163.055 299.678 162.044 301.806C161.033 303.933 159.752 305.854 158.201 307.57C155.1 311.001 150.55 312.716 144.55 312.716C142.392 312.716 140.471 312.407 138.786 311.79C137.168 311.104 135.954 310.314 135.145 309.422C133.46 307.57 132.482 305.923 132.213 304.482L132.112 303.453H131.303L132.718 312.716V324.347C132.718 325.102 130.763 325.685 126.853 326.097C123.01 326.577 119.033 326.817 114.921 326.817C110.876 326.817 108.179 326.611 106.831 326.2C105.483 325.857 104.808 325.239 104.808 324.347ZM138.381 281.735C138.381 275.902 138.078 271.819 137.471 269.486C136.864 267.153 135.954 265.987 134.741 265.987C133.527 265.987 132.651 266.673 132.112 268.045V295.012C132.112 296.796 133.022 297.689 134.842 297.689C137.201 297.689 138.381 292.371 138.381 281.735Z" fill="url(#paint1_linear_1372_1308)"/>
<path d="M199.67 258.679V309.422C199.67 310.177 197.715 310.795 193.805 311.275C189.962 311.687 185.985 311.893 181.873 311.893C177.828 311.893 175.199 311.721 173.985 311.378C172.839 310.966 172.266 310.314 172.266 309.422V260.531C172.266 259.022 174.154 257.546 177.929 256.105C181.772 254.596 185.951 253.841 190.468 253.841C196.603 253.841 199.67 255.454 199.67 258.679ZM185.918 231.608C190.367 231.608 193.839 232.295 196.333 233.667C198.895 234.971 200.176 237.372 200.176 240.872C200.176 247.048 195.457 250.136 186.019 250.136C176.581 250.136 171.861 247.048 171.861 240.872C171.861 234.696 176.547 231.608 185.918 231.608Z" fill="url(#paint2_linear_1372_1308)"/>
<path d="M268.192 277.72V309.422C268.192 310.177 266.271 310.795 262.428 311.275C258.585 311.687 254.608 311.893 250.496 311.893C246.451 311.893 243.821 311.721 242.608 311.378C241.462 310.966 240.889 310.314 240.889 309.422V276.691C240.889 273.603 240.754 271.579 240.484 270.618C240.282 269.658 240.08 268.8 239.878 268.045C239.406 266.741 238.563 266.089 237.35 266.089C235.462 266.089 234.518 267.016 234.518 268.869V309.422C234.518 310.177 232.597 310.795 228.754 311.275C224.979 311.687 221.035 311.893 216.923 311.893C212.878 311.893 210.249 311.721 209.035 311.378C207.822 310.966 207.215 310.314 207.215 309.422V258.679C207.215 257.238 209.136 255.797 212.979 254.356C216.889 252.915 221.001 252.194 225.316 252.194C229.631 252.194 232.057 253.464 232.597 256.002L233.507 260.531H234.215C236.17 256.551 239.541 253.772 244.327 252.194C246.282 251.577 248.439 251.268 250.799 251.268C257.608 251.268 262.192 253.361 264.552 257.546C266.979 261.664 268.192 268.388 268.192 277.72Z" fill="url(#paint3_linear_1372_1308)"/>
<path d="M302.761 312.819C291.57 312.819 283.379 311.721 278.188 309.525C275.559 308.359 274.244 307.227 274.244 306.129C274.244 303.315 275.053 300.022 276.671 296.248C278.289 292.473 279.705 290.586 280.918 290.586C281.593 290.586 283.851 291.341 287.694 292.851C291.604 294.361 294.873 295.115 297.503 295.115C300.199 295.115 301.952 294.944 302.761 294.601C303.637 294.258 304.076 293.606 304.076 292.645C304.076 291.616 303.401 290.827 302.053 290.278C300.705 289.66 299.019 289.248 296.997 289.043C294.975 288.837 292.784 288.425 290.424 287.807C288.132 287.19 285.975 286.401 283.952 285.44C281.93 284.479 280.244 282.901 278.896 280.705C277.548 278.441 276.874 276.039 276.874 273.5C276.874 270.893 276.941 268.971 277.076 267.736C277.211 266.433 277.75 264.648 278.694 262.384C279.705 260.051 281.087 258.164 282.84 256.723C284.66 255.282 287.424 253.978 291.132 252.812C294.907 251.645 299.121 251.062 303.772 251.062C308.424 251.062 312.3 251.233 315.401 251.577C318.57 251.851 321.031 252.228 322.783 252.709C324.604 253.189 326.087 253.738 327.233 254.356C329.188 255.385 330.165 256.517 330.165 257.752C330.165 260.428 329.221 263.516 327.334 267.016C325.446 270.515 323.929 272.265 322.783 272.265C321.705 272.265 319.311 271.682 315.604 270.515C311.896 269.28 309.165 268.663 307.413 268.663C304.581 268.663 303.166 269.486 303.166 271.133C303.166 272.162 304.109 272.951 305.997 273.5C307.952 273.981 310.278 274.495 312.974 275.044C315.671 275.593 318.368 276.382 321.064 277.412C323.828 278.372 326.154 280.156 328.042 282.764C329.997 285.371 330.974 288.665 330.974 292.645C330.974 306.094 321.57 312.819 302.761 312.819Z" fill="url(#paint4_linear_1372_1308)"/>
<path d="M368.221 311.893H346.075C342.704 311.893 340.446 311.653 339.3 311.172C338.153 310.692 337.58 309.937 337.58 308.908V242.725C337.58 239.431 347.322 237.784 366.805 237.784C377.996 237.784 385.715 238.882 389.962 241.078C394.277 243.342 397.041 246.224 398.254 249.724C398.928 251.782 399.265 254.184 399.265 256.929C399.265 262.281 398.355 266.295 396.535 268.971C394.782 271.648 392.861 273.157 390.771 273.5C393.94 274.187 396.569 275.765 398.659 278.235C400.748 280.705 401.793 284.891 401.793 290.792C401.793 297.654 399.737 302.732 395.625 306.026C392.052 308.908 386.591 310.726 379.243 311.481C376.142 311.755 372.468 311.893 368.221 311.893ZM368.322 267.016C371.76 267.016 373.479 264.683 373.479 260.017C373.479 257.684 373.007 255.968 372.063 254.87C371.187 253.704 370.176 253.12 369.03 253.12H365.794V267.016H368.322ZM365.794 296.556H368.322C371.76 296.556 373.479 294.223 373.479 289.557C373.479 287.224 373.007 285.509 372.063 284.411C371.187 283.244 370.176 282.661 369.03 282.661H365.794V296.556Z" fill="url(#paint5_linear_1372_1308)"/>
<path d="M434.69 279.367V309.422C434.69 310.177 432.769 310.795 428.926 311.275C425.151 311.687 421.207 311.893 417.095 311.893C413.05 311.893 410.42 311.721 409.207 311.378C407.994 310.966 407.387 310.314 407.387 309.422V258.679C407.387 257.375 409.241 255.968 412.949 254.459C416.724 252.949 420.802 252.194 425.184 252.194C429.634 252.194 432.128 253.429 432.667 255.9L433.679 260.634H434.387C435.33 258.027 437.589 255.831 441.162 254.047C444.735 252.194 448.308 251.268 451.881 251.268C455.454 251.268 457.948 251.851 459.364 253.018C460.847 254.184 461.589 255.694 461.589 257.546C461.589 259.33 461.454 261.629 461.184 264.443C460.914 267.256 460.24 270.31 459.162 273.603C458.15 276.897 456.802 278.544 455.117 278.544C454.443 278.544 452.319 278.029 448.746 277C445.173 275.971 442.207 275.456 439.847 275.456C437.555 275.456 436.106 275.799 435.499 276.485C434.96 277.171 434.69 278.132 434.69 279.367Z" fill="url(#paint6_linear_1372_1308)"/>
<path d="M497.784 312.819C492.728 312.819 488.38 312.373 484.739 311.481C481.099 310.589 477.796 309.011 474.829 306.746C468.695 302.217 465.627 293.777 465.627 281.426C465.627 270.447 468.762 262.59 475.032 257.855C480.897 253.464 488.481 251.268 497.784 251.268C501.762 251.268 505.166 251.474 507.998 251.885C510.829 252.228 513.694 253.018 516.593 254.253C519.559 255.488 521.919 257.169 523.672 259.296C525.492 261.423 526.975 264.374 528.121 268.148C529.267 271.853 529.84 276.279 529.84 281.426C529.84 291.856 526.941 299.713 521.144 304.996C515.346 310.212 507.559 312.819 497.784 312.819ZM494.245 292.748C494.717 295.218 495.189 296.694 495.661 297.174C496.2 297.654 496.874 297.894 497.683 297.894C498.56 297.894 499.234 297.654 499.706 297.174C500.245 296.694 500.717 295.218 501.121 292.748C501.593 290.278 501.829 287.19 501.829 283.484C501.829 279.71 501.728 276.828 501.526 274.838C501.391 272.78 501.189 271.202 500.919 270.104C500.717 269.006 500.413 268.148 500.009 267.53C499.402 266.638 498.661 266.192 497.784 266.192C496.975 266.192 496.301 266.467 495.762 267.016C495.222 267.496 494.717 269.006 494.245 271.545C493.773 274.015 493.537 277.549 493.537 282.146C493.537 286.744 493.773 290.278 494.245 292.748Z" fill="url(#paint7_linear_1372_1308)"/>
<path d="M82.1269 311.378C85.7673 310.348 88.5987 309.079 90.6212 307.569C92.6436 306.06 94.2953 304.276 95.5762 302.217C97.6661 298.855 98.711 295.115 98.711 290.998C98.711 290.09 98.6711 289.209 98.5912 288.353C96.4863 317.453 44.1149 308.691 37.7997 301.045C37.6884 302.308 37.6328 303.556 37.6328 304.79C37.6328 305.888 38.7452 307.02 40.9699 308.187C43.1946 309.353 46.8687 310.417 51.9923 311.378C57.1158 312.338 62.509 312.819 68.1719 312.819C73.9022 312.819 78.5538 312.338 82.1269 311.378Z" fill="#FFA217"/>
<path d="M67.7674 285.851C69.2505 286.675 69.9921 287.635 69.9921 288.733C69.9921 288.733 76.5654 282.434 58.1113 277.307C39.6571 272.179 40.051 258.03 40.051 258.03C39.9894 258.872 39.9586 259.74 39.9586 260.634C39.9586 264.202 40.7002 267.393 42.1833 270.206C43.6665 272.951 45.5204 275.078 47.7451 276.588C49.9698 278.097 52.363 279.47 54.9248 280.705C57.554 281.94 59.981 282.901 62.2057 283.587C64.4304 284.204 66.2843 284.959 67.7674 285.851Z" fill="#FFA217"/>
<path d="M94.7672 256.62C96.4526 252.502 97.2953 248.66 97.2953 245.092C97.2953 244.745 97.1809 244.399 96.9521 244.053C96.9521 244.053 93.7222 257.577 90.5634 258.03C87.4047 258.483 83.6437 254.185 75.1123 254.185C66.581 254.185 68.9284 261.273 68.9284 261.273C69.1462 260.606 69.6019 260.084 70.2955 259.707C71.3741 259.159 73.3629 258.884 76.2617 258.884C79.228 258.884 82.9358 259.879 87.3852 261.869C88.8684 262.487 89.7448 262.795 90.0144 262.795C91.565 262.795 93.1492 260.737 94.7672 256.62Z" fill="#FFA217"/>
<path d="M165.482 285.543C165.684 282.661 165.785 279.779 165.785 276.897C164.471 313.473 138.786 313.304 131.552 300.109L132.112 303.452L132.213 304.481C132.482 305.922 133.46 307.569 135.145 309.422C135.954 310.314 137.168 311.103 138.786 311.789C140.471 312.407 142.392 312.716 144.55 312.716C150.55 312.716 155.1 311 158.201 307.569C159.752 305.854 161.033 303.932 162.044 301.805C163.055 299.678 163.83 297.139 164.37 294.189C164.909 291.238 165.28 288.356 165.482 285.543Z" fill="#FFA217"/>
<path d="M126.853 326.096C130.763 325.685 132.718 325.101 132.718 324.347V319.369C132.718 322.588 104.808 324.005 104.808 319.981V324.347C104.808 325.239 105.483 325.856 106.831 326.199C108.179 326.611 110.876 326.817 114.921 326.817C119.033 326.817 123.01 326.577 126.853 326.096Z" fill="#FFA217"/>
<path d="M134.741 265.986C135.954 265.986 136.864 267.153 137.471 269.486C137.893 271.109 138.168 273.579 138.297 276.897C139.227 265.986 135.723 257.128 132.112 263.501V268.045C132.651 266.672 133.527 265.986 134.741 265.986Z" fill="#FFA217"/>
<path d="M193.805 311.275C197.715 310.794 199.67 310.177 199.67 309.422V304.481C199.67 308.08 172.266 308.422 172.266 304.914V309.422C172.266 310.314 172.839 310.966 173.985 311.378C175.199 311.721 177.828 311.892 181.873 311.892C185.985 311.892 189.962 311.686 193.805 311.275Z" fill="#FFA217"/>
<path d="M186.019 250.135C195.457 250.135 200.176 247.047 200.176 240.872C200.176 240.018 200.1 239.23 199.947 238.507C198.46 248.438 173.156 247.754 172.125 238.507C171.949 239.237 171.861 240.025 171.861 240.872C171.861 247.047 176.581 250.135 186.019 250.135Z" fill="#FFA217"/>
<path d="M262.428 311.275C266.271 310.794 268.192 310.177 268.192 309.422V304.481C268.192 308.127 240.889 308.609 240.889 305.424V309.422C240.889 310.314 241.462 310.966 242.608 311.378C243.821 311.721 246.451 311.892 250.496 311.892C254.608 311.892 258.585 311.686 262.428 311.275Z" fill="#FFA217"/>
<path d="M239.878 268.045C240.08 268.8 240.282 269.657 240.484 270.618C240.646 271.195 240.76 272.156 240.824 273.5C241.839 262.384 237.35 258.678 234.518 263.242V268.868C234.518 267.015 235.462 266.089 237.35 266.089C238.563 266.089 239.406 266.741 239.878 268.045Z" fill="#FFA217"/>
<path d="M228.754 311.275C232.597 310.794 234.518 310.177 234.518 309.422V304.481C234.518 308.416 207.215 308.32 207.215 305.424V309.422C207.215 310.314 207.822 310.966 209.035 311.378C210.249 311.721 212.878 311.892 216.923 311.892C221.035 311.892 224.979 311.686 228.754 311.275Z" fill="#FFA217"/>
<path d="M278.188 309.525C283.379 311.721 291.57 312.819 302.761 312.819C321.57 312.819 330.974 306.094 330.974 292.645C330.974 291.937 330.943 291.251 330.882 290.586C329.046 315.654 280.918 309.525 274.631 302.531C274.373 303.806 274.244 305.006 274.244 306.128C274.244 307.226 275.559 308.358 278.188 309.525Z" fill="#FFA217"/>
<path d="M296.997 289.042C299.019 289.248 300.705 289.66 302.053 290.277C302.879 290.614 303.452 291.04 303.772 291.557C303.772 279.464 278.188 287.807 276.939 269.71C276.895 270.75 276.874 272.014 276.874 273.5C276.874 276.039 277.548 278.44 278.896 280.705C280.244 282.901 281.93 284.479 283.952 285.44C285.975 286.4 288.132 287.189 290.424 287.807C292.784 288.425 294.975 288.836 296.997 289.042Z" fill="#FFA217"/>
<path d="M327.334 267.015C329.221 263.516 330.165 260.428 330.165 257.752C330.165 257.144 329.928 256.56 329.454 256.002C329.454 256.002 325.728 268.045 322.783 267.736C319.839 267.427 303.682 262.384 303.682 269.71C304.325 269.012 305.569 268.662 307.413 268.662C309.165 268.662 311.896 269.28 315.604 270.515C319.311 271.682 321.705 272.265 322.783 272.265C323.929 272.265 325.446 270.515 327.334 267.015Z" fill="#FFA217"/>
<path d="M346.075 311.892H368.221C372.468 311.892 376.142 311.755 379.243 311.481C386.591 310.726 392.052 308.907 395.625 306.025C399.737 302.732 401.793 297.654 401.793 290.792C401.793 289.764 401.762 288.789 401.698 287.865C401.748 302.656 387.791 307.065 365.794 307.162C343.797 307.258 337.58 306.95 337.58 303.591V308.907C337.58 309.937 338.153 310.691 339.299 311.172C340.446 311.652 342.704 311.892 346.075 311.892Z" fill="#FFA217"/>
<path d="M369.03 282.661C370.176 282.661 371.187 283.244 372.063 284.41C372.679 285.126 373.094 286.105 373.308 287.347C373.29 280.604 372.956 277.177 365.794 278.235V282.661H369.03Z" fill="#FFA217"/>
<path d="M428.926 311.275C432.769 310.794 434.69 310.177 434.69 309.422V304.942C430.972 307.644 407.387 308.899 407.387 304.942V309.422C407.387 310.314 407.993 310.966 409.207 311.378C410.42 311.721 413.05 311.892 417.095 311.892C421.207 311.892 425.151 311.686 428.926 311.275Z" fill="#FFA217"/>
<path d="M461.184 264.442C461.454 261.629 461.589 259.33 461.589 257.546C461.589 257.149 461.555 256.767 461.486 256.402C461.486 256.402 460.175 274.156 455.117 274.059C450.058 273.963 444.151 271.351 438.652 270.682C433.153 270.012 434.69 279.367 434.69 279.367C434.69 278.132 434.96 277.171 435.499 276.485C436.106 275.799 437.555 275.456 439.847 275.456C442.207 275.456 445.173 275.97 448.746 276.999C452.319 278.029 454.443 278.543 455.117 278.543C456.802 278.543 458.15 276.897 459.162 273.603C460.24 270.309 460.914 267.256 461.184 264.442Z" fill="#FFA217"/>
<path d="M484.739 311.481C488.38 312.373 492.728 312.819 497.784 312.819C507.559 312.819 515.346 310.211 521.144 304.996C526.807 299.835 529.704 292.218 529.836 282.146C525.186 313.526 468.505 321.372 465.657 279.594C465.637 280.195 465.627 280.805 465.627 281.425C465.627 293.777 468.695 302.217 474.829 306.746C477.796 309.01 481.099 310.589 484.739 311.481Z" fill="#FFA217"/>
<path d="M500.919 270.103C501.189 271.201 501.391 272.779 501.526 274.838C501.652 276.077 501.738 277.663 501.786 279.594C501.786 279.594 502.762 261.529 497.683 261.411C492.604 261.293 493.57 279.301 493.57 279.301C493.651 276.064 493.876 273.478 494.245 271.544C494.717 269.005 495.222 267.496 495.762 267.015C496.301 266.466 496.975 266.192 497.784 266.192C498.661 266.192 499.402 266.638 500.009 267.53C500.413 268.148 500.717 269.005 500.919 270.103Z" fill="#FFA217"/>
<path fill-rule="evenodd" clip-rule="evenodd" d="M82.8313 314.092L82.8482 314.088L82.8651 314.083C86.6804 313.004 89.8607 311.618 92.2522 309.833C94.5389 308.127 96.4331 306.087 97.9069 303.718C100.286 299.891 101.469 295.627 101.469 290.998C101.469 286.722 100.657 282.839 98.9416 279.427C97.2985 276.158 95.1771 273.514 92.5249 271.626C90.1488 269.869 87.5669 268.374 84.7856 267.136C82.1248 265.856 79.5822 264.901 77.1642 264.3C75.1428 263.72 73.4949 263.125 72.1943 262.528C71.9208 262.385 71.7423 262.264 71.6301 262.174C71.835 262.092 72.2493 261.971 72.9667 261.872C73.7975 261.757 74.887 261.692 76.2618 261.692C78.6785 261.692 81.9805 262.518 86.2759 264.439L86.3083 264.454L86.3411 264.468C87.1012 264.784 87.7446 265.038 88.2528 265.217C88.505 265.306 88.7574 265.388 88.9928 265.452C89.1591 265.496 89.5621 265.603 90.0145 265.603C92.0662 265.603 93.5604 264.251 94.5367 262.983C95.5607 261.652 96.474 259.833 97.3206 257.681C99.1073 253.311 100.053 249.105 100.053 245.092C100.053 243.57 99.2933 242.384 98.4871 241.563C97.6979 240.76 96.6658 240.093 95.5436 239.518C93.1449 238.187 89.3587 237.178 84.5199 236.356C79.4632 235.429 73.5331 234.977 66.7563 234.977C57.5059 234.977 50.0545 236.939 44.8871 241.345C39.6261 245.831 37.2008 252.442 37.2008 260.634C37.2008 264.61 38.0305 268.266 39.7531 271.534L39.7669 271.559C41.4313 274.64 43.5696 277.129 46.2154 278.924C48.558 280.513 51.0686 281.952 53.7442 283.242L53.7692 283.254C56.487 284.531 59.0344 285.542 61.4059 286.274L61.4429 286.285L61.4801 286.296C63.542 286.868 65.151 287.539 66.3645 288.269L66.4053 288.293L66.4469 288.316C66.9033 288.57 67.1288 288.77 67.2267 288.876C67.2239 288.9 67.2206 288.919 67.2176 288.934C67.2133 288.955 67.209 288.969 67.2062 288.977C67.0996 289.013 66.8636 289.083 66.438 289.15C65.752 289.257 64.7925 289.323 63.5203 289.323C61.3066 289.323 57.6596 288.532 52.3786 286.695C49.7122 285.767 47.6659 285.067 46.2472 284.598C45.5404 284.364 44.9722 284.181 44.5543 284.055C44.348 283.992 44.1543 283.937 43.9879 283.894C43.9062 283.873 43.8056 283.848 43.6996 283.827L43.6939 283.826C43.6301 283.814 43.386 283.765 43.0935 283.765C40.9096 283.765 39.4941 285.327 38.6797 286.658C37.8232 288.057 37.1495 289.943 36.5847 292.133C35.4518 296.459 34.875 300.681 34.875 304.791C34.875 306.367 35.6806 307.597 36.517 308.448C37.3579 309.304 38.4721 310.035 39.707 310.683C42.3132 312.049 46.326 313.17 51.4927 314.139C56.7946 315.133 62.3559 315.626 68.172 315.626C74.0249 315.626 78.9388 315.139 82.8313 314.092ZM83.6438 269.692C86.273 270.859 88.6999 272.265 90.9246 273.912C93.1493 275.49 95.0032 277.755 96.4864 280.705C97.9695 283.656 98.7111 287.087 98.7111 290.998C98.7111 295.115 97.6661 298.855 95.5763 302.217C94.2954 304.276 92.6437 306.06 90.6213 307.57C88.5988 309.079 85.7674 310.349 82.1269 311.378C78.5539 312.339 73.9023 312.819 68.172 312.819C62.5091 312.819 57.1159 312.339 51.9923 311.378C46.8688 310.417 43.1947 309.354 40.9699 308.187C38.7452 307.021 37.6329 305.889 37.6329 304.791C37.6329 300.948 38.1722 296.968 39.2509 292.851C40.3295 288.665 41.6104 286.572 43.0935 286.572C43.3632 286.572 46.1609 287.499 51.4867 289.351C56.8125 291.204 60.8237 292.13 63.5203 292.13C66.2169 292.13 67.9697 291.856 68.7787 291.307C69.5877 290.689 69.9922 289.832 69.9922 288.734C69.9922 287.636 69.2506 286.675 67.7675 285.852C66.2844 284.96 64.4304 284.205 62.2057 283.587C59.981 282.901 57.5541 281.94 54.9249 280.705C52.3631 279.47 49.9699 278.098 47.7452 276.588C45.5205 275.079 43.6666 272.951 42.1834 270.207C40.7003 267.393 39.9587 264.202 39.9587 260.634C39.9587 245.401 48.8912 237.784 66.7563 237.784C73.4304 237.784 79.1944 238.23 84.0483 239.122C88.9022 239.946 92.3066 240.906 94.2617 242.004C96.2841 243.033 97.2954 244.063 97.2954 245.092C97.2954 248.66 96.4527 252.503 94.7673 256.62C93.1493 260.737 91.5651 262.796 90.0145 262.796C89.7449 262.796 88.8685 262.487 87.3853 261.869C82.9359 259.879 79.2281 258.884 76.2618 258.884C73.363 258.884 71.3742 259.159 70.2956 259.708C69.2843 260.257 68.7787 261.115 68.7787 262.281C68.7787 263.379 69.5203 264.305 71.0034 265.06C72.4866 265.746 74.3068 266.398 76.4641 267.016C78.6888 267.565 81.082 268.457 83.6438 269.692ZM129.344 325.769C128.628 325.888 127.798 325.997 126.853 326.097C123.011 326.577 119.033 326.817 114.921 326.817C110.876 326.817 108.179 326.611 106.831 326.2C105.483 325.857 104.808 325.239 104.808 324.347V258.884C104.808 257.443 106.696 255.968 110.471 254.459C114.247 252.949 118.325 252.194 122.707 252.194C124.73 252.194 126.314 252.434 127.46 252.915C128.606 253.395 129.314 253.875 129.584 254.356C129.762 254.674 130.045 255.688 130.432 257.396C130.618 258.217 130.827 259.198 131.061 260.339L131.1 260.531H131.909C131.922 260.474 131.939 260.413 131.959 260.35C132.138 259.804 132.619 259.038 133.402 258.052C133.506 257.922 133.615 257.788 133.73 257.649C134.808 256.346 135.887 255.282 136.966 254.459C138.112 253.635 139.73 252.915 141.819 252.297C143.909 251.611 146.336 251.268 149.1 251.268C151.932 251.268 154.493 251.92 156.786 253.223C159.078 254.459 160.763 255.934 161.842 257.649C162.988 259.296 163.864 261.423 164.471 264.031C165.145 266.57 165.516 268.628 165.583 270.207C165.664 271.114 165.721 272.281 165.753 273.709L168.336 270.017C168.249 268.164 167.827 265.917 167.144 263.341C166.487 260.534 165.508 258.08 164.129 256.08C162.734 253.887 160.66 252.139 158.103 250.757C155.375 249.212 152.354 248.461 149.1 248.461C146.136 248.461 143.426 248.826 141.012 249.613C138.788 250.273 136.861 251.098 135.375 252.165L135.343 252.189L135.311 252.213C134.385 252.919 133.487 253.753 132.614 254.701C132.563 254.513 132.513 254.339 132.464 254.179C132.367 253.862 132.211 253.377 131.978 252.963C131.544 252.19 130.909 251.658 130.38 251.299C129.824 250.922 129.182 250.601 128.51 250.319C126.886 249.638 124.891 249.387 122.707 249.387C118.008 249.387 113.584 250.198 109.463 251.846C107.478 252.639 105.787 253.499 104.545 254.471C103.376 255.384 102.051 256.839 102.051 258.884V324.347C102.051 325.62 102.574 326.746 103.469 327.566C104.255 328.286 105.219 328.677 106.102 328.908C107.907 329.441 110.98 329.624 114.921 329.624C119.129 329.624 122.696 329.505 127.164 328.886L129.344 325.769ZM134.87 292.784V270.467C135.337 272.476 135.623 276.151 135.623 281.735C135.623 286.784 135.351 290.426 134.87 292.784ZM134.741 265.987C133.527 265.987 132.651 266.673 132.112 268.045V295.012C132.112 296.797 133.022 297.689 134.842 297.689C137.201 297.689 138.381 292.371 138.381 281.735C138.381 275.902 138.078 271.819 137.471 269.486C136.864 267.153 135.954 265.987 134.741 265.987ZM194.094 314.067L194.115 314.065L194.136 314.062C196.134 313.817 197.8 313.519 199.022 313.133C199.614 312.946 200.288 312.682 200.87 312.274C201.401 311.901 202.428 310.985 202.428 309.422V258.679C202.428 257.399 202.117 256.152 201.412 255.04C200.716 253.941 199.736 253.135 198.635 252.556C197.726 252.078 196.687 251.731 195.543 251.489C196.478 251.129 197.342 250.695 198.128 250.181C201.351 248.072 202.934 244.822 202.934 240.872C202.934 238.782 202.552 236.818 201.639 235.107C200.718 233.379 199.339 232.067 197.607 231.177C194.549 229.506 190.57 228.801 185.918 228.801C181.023 228.801 176.876 229.591 173.877 231.568C170.671 233.681 169.104 236.931 169.104 240.872C169.104 244.822 170.687 248.072 173.91 250.181C175.598 251.286 177.649 252.019 179.992 252.451C178.959 252.747 177.944 253.091 176.948 253.482C174.962 254.241 173.258 255.084 172.002 256.066C170.791 257.013 169.508 258.485 169.508 260.531V309.422C169.508 310.544 169.892 311.6 170.641 312.452C171.338 313.245 172.228 313.724 173.067 314.025L173.156 314.057L173.247 314.083C174.145 314.337 175.345 314.478 176.691 314.565C178.086 314.656 179.819 314.7 181.873 314.7C186.075 314.7 190.149 314.489 194.094 314.067ZM185.918 231.608C190.367 231.608 193.839 232.295 196.333 233.667C198.895 234.971 200.176 237.372 200.176 240.872C200.176 247.048 195.457 250.136 186.019 250.136C176.581 250.136 171.862 247.048 171.862 240.872C171.862 234.696 176.547 231.608 185.918 231.608ZM172.266 260.531C172.266 259.022 174.154 257.546 177.929 256.105C181.772 254.596 185.951 253.841 190.468 253.841C196.603 253.841 199.67 255.454 199.67 258.679V309.422C199.67 310.177 197.715 310.795 193.805 311.275C189.963 311.687 185.985 311.893 181.873 311.893C177.828 311.893 175.199 311.721 173.985 311.378C172.839 310.966 172.266 310.314 172.266 309.422V260.531ZM262.717 314.067L262.741 314.064L262.764 314.061C264.73 313.816 266.374 313.517 267.582 313.129C268.167 312.94 268.838 312.674 269.416 312.261C269.952 311.878 270.95 310.962 270.95 309.422V277.72C270.95 268.293 269.75 260.927 266.93 256.125C263.877 250.732 258.108 248.461 250.799 248.461C248.204 248.461 245.766 248.8 243.51 249.513L243.493 249.518L243.477 249.524C240.115 250.632 237.284 252.309 235.063 254.573C234.473 252.834 233.269 251.505 231.633 250.649C229.867 249.726 227.683 249.387 225.316 249.387C220.693 249.387 216.263 250.16 212.04 251.716L212.026 251.722C210.008 252.478 208.287 253.307 207.02 254.257C205.832 255.148 204.457 256.598 204.457 258.679V309.422C204.457 310.592 204.883 311.667 205.668 312.511C206.392 313.289 207.307 313.751 208.163 314.041L208.23 314.064L208.297 314.083C209.195 314.337 210.395 314.478 211.741 314.565C213.136 314.656 214.869 314.7 216.923 314.7C221.125 314.7 225.168 314.489 229.048 314.066L229.069 314.064L229.09 314.061C231.056 313.816 232.7 313.517 233.908 313.129C234.494 312.94 235.164 312.674 235.742 312.261C236.278 311.878 237.276 310.962 237.276 309.422V269.008C237.443 269.65 237.614 270.382 237.788 271.207L237.807 271.299L237.833 271.39C237.978 271.906 238.131 273.525 238.131 276.691V309.422C238.131 310.544 238.515 311.6 239.263 312.452C239.961 313.245 240.851 313.724 241.69 314.025L241.779 314.057L241.87 314.083C242.768 314.337 243.968 314.478 245.314 314.565C246.709 314.656 248.442 314.7 250.496 314.7C254.698 314.7 258.772 314.489 262.717 314.067ZM250.799 251.268C257.608 251.268 262.192 253.361 264.552 257.546C266.979 261.664 268.192 268.388 268.192 277.72V309.422C268.192 310.177 266.271 310.795 262.428 311.275C258.585 311.687 254.608 311.893 250.496 311.893C246.451 311.893 243.822 311.721 242.608 311.378C241.462 310.966 240.889 310.314 240.889 309.422V276.691C240.889 273.603 240.754 271.579 240.484 270.618C240.282 269.658 240.08 268.8 239.878 268.045C239.406 266.741 238.563 266.089 237.35 266.089C235.462 266.089 234.518 267.016 234.518 268.869V309.422C234.518 310.177 232.597 310.795 228.754 311.275C224.979 311.687 221.035 311.893 216.923 311.893C212.878 311.893 210.249 311.721 209.035 311.378C207.822 310.966 207.215 310.314 207.215 309.422V258.679C207.215 257.238 209.136 255.797 212.979 254.356C216.889 252.915 221.001 252.194 225.316 252.194C229.631 252.194 232.058 253.464 232.597 256.002L233.507 260.531H234.215C234.242 260.476 234.269 260.421 234.297 260.367C234.732 259.506 235.234 258.702 235.804 257.955C237.81 255.327 240.651 253.406 244.327 252.194C246.282 251.577 248.439 251.268 250.799 251.268ZM277.086 312.099L277.108 312.108L277.13 312.118C282.847 314.536 291.495 315.626 302.761 315.626C312.404 315.626 320.129 313.918 325.506 310.073C331.062 306.1 333.732 300.126 333.732 292.645C333.732 288.194 332.634 284.271 330.249 281.081C328.247 278.322 325.759 276.287 322.794 275.072C324.654 275.067 326.031 273.753 326.849 272.81C327.803 271.709 328.768 270.189 329.751 268.367C331.761 264.641 332.923 261.077 332.923 257.752C332.923 254.823 330.622 252.982 328.512 251.869C327.117 251.119 325.421 250.506 323.488 249.995C321.51 249.454 318.876 249.061 315.667 248.782C312.438 248.427 308.465 248.255 303.772 248.255C298.896 248.255 294.407 248.866 290.331 250.126L290.318 250.13C286.478 251.338 283.349 252.763 281.147 254.507L281.127 254.523L281.107 254.539C278.975 256.292 277.339 258.555 276.171 261.251L276.163 261.269L276.155 261.288C275.182 263.622 274.513 265.711 274.334 267.435C274.182 268.833 274.116 270.881 274.116 273.5C274.116 276.575 274.94 279.477 276.538 282.16L276.547 282.177L276.557 282.193C278.148 284.783 280.216 286.763 282.786 287.984C283.061 288.115 283.339 288.243 283.619 288.367C283.167 288.221 282.757 288.099 282.397 288.007C282.014 287.908 281.458 287.779 280.919 287.779C278.919 287.779 277.54 289.251 276.755 290.298C275.849 291.505 274.987 293.158 274.144 295.125C272.438 299.103 271.487 302.793 271.487 306.129C271.487 307.89 272.538 309.159 273.449 309.944C274.402 310.765 275.666 311.469 277.086 312.099ZM321.064 277.412C323.828 278.372 326.154 280.156 328.042 282.764C329.997 285.371 330.974 288.665 330.974 292.645C330.974 306.094 321.57 312.819 302.761 312.819C291.57 312.819 283.379 311.721 278.188 309.525C275.559 308.359 274.244 307.227 274.244 306.129C274.244 303.315 275.053 300.022 276.671 296.248C278.289 292.474 279.705 290.586 280.919 290.586C281.593 290.586 283.851 291.341 287.694 292.851C291.604 294.361 294.874 295.115 297.503 295.115C300.199 295.115 301.952 294.944 302.761 294.601C303.638 294.258 304.076 293.606 304.076 292.645C304.076 291.616 303.402 290.827 302.053 290.278C300.705 289.66 299.02 289.248 296.997 289.043C294.975 288.837 292.784 288.425 290.424 287.807C288.132 287.19 285.975 286.401 283.952 285.44C281.93 284.479 280.244 282.901 278.896 280.705C277.548 278.441 276.874 276.039 276.874 273.5C276.874 270.893 276.941 268.971 277.076 267.736C277.211 266.433 277.75 264.648 278.694 262.384C279.705 260.051 281.087 258.164 282.84 256.723C284.66 255.282 287.424 253.978 291.132 252.812C294.907 251.645 299.121 251.062 303.772 251.062C308.424 251.062 312.3 251.233 315.401 251.577C318.57 251.851 321.031 252.228 322.783 252.709C324.604 253.189 326.087 253.738 327.233 254.356C329.188 255.385 330.165 256.517 330.165 257.752C330.165 260.428 329.222 263.516 327.334 267.016C325.446 270.515 323.929 272.265 322.783 272.265C321.705 272.265 319.312 271.682 315.604 270.515C311.896 269.28 309.166 268.663 307.413 268.663C304.581 268.663 303.166 269.486 303.166 271.133C303.166 272.162 304.109 272.951 305.997 273.5C307.952 273.981 310.278 274.495 312.975 275.044C315.671 275.593 318.368 276.382 321.064 277.412ZM297.503 292.308C295.347 292.308 292.436 291.679 288.679 290.229L288.663 290.223C289.012 290.326 289.364 290.426 289.718 290.521L289.737 290.526C292.207 291.172 294.537 291.613 296.723 291.836C297.709 291.936 298.563 292.087 299.296 292.276C298.772 292.297 298.176 292.308 297.503 292.308ZM391.226 238.583L391.211 238.575C386.318 236.045 377.994 234.977 366.805 234.977C357.028 234.977 349.537 235.387 344.435 236.25C341.911 236.677 339.764 237.246 338.177 238.051C336.701 238.799 334.823 240.239 334.823 242.725V308.908C334.823 309.991 335.138 311.053 335.828 311.962C336.49 312.834 337.37 313.399 338.25 313.768C339.191 314.162 340.354 314.376 341.566 314.505C342.824 314.638 344.335 314.7 346.075 314.7H368.221C372.521 314.7 376.279 314.561 379.482 314.278L379.501 314.276L379.52 314.274C387.098 313.496 393.168 311.589 397.337 308.226C402.293 304.253 404.551 298.241 404.551 290.792C404.551 284.705 403.503 279.659 400.749 276.403C399.605 275.051 398.318 273.92 396.896 273.013C397.586 272.279 398.225 271.45 398.817 270.549C401.092 267.19 402.023 262.507 402.023 256.929C402.023 253.959 401.66 251.245 400.871 248.836L400.863 248.813L400.855 248.79C399.339 244.417 395.953 241.064 391.226 238.583ZM401.794 290.792C401.794 297.654 399.737 302.732 395.625 306.026C392.052 308.908 386.591 310.726 379.243 311.481C376.142 311.755 372.468 311.893 368.221 311.893H346.075C342.704 311.893 340.446 311.653 339.3 311.172C338.154 310.692 337.581 309.937 337.581 308.908V242.725C337.581 239.431 347.322 237.784 366.805 237.784C377.996 237.784 385.715 238.882 389.962 241.078C394.277 243.342 397.041 246.224 398.254 249.724C398.928 251.782 399.265 254.184 399.265 256.929C399.265 262.281 398.355 266.295 396.535 268.971C395.819 270.065 395.074 270.964 394.301 271.668C393.184 272.687 392.007 273.297 390.771 273.5C392.165 273.802 393.454 274.277 394.639 274.924C396.148 275.748 397.488 276.851 398.659 278.235C400.749 280.705 401.794 284.891 401.794 290.792ZM369.873 256.575L369.928 256.649L369.988 256.719C370.294 257.075 370.721 257.979 370.721 260.017C370.721 262.08 370.327 263.115 369.983 263.582C369.77 263.872 369.426 264.161 368.552 264.203V255.928H369.03L369.036 255.928C369.114 255.927 369.384 255.925 369.873 256.575ZM368.322 267.016C368.399 267.016 368.476 267.015 368.552 267.012C371.837 266.909 373.479 264.578 373.479 260.017C373.479 257.684 373.007 255.968 372.063 254.87C371.187 253.704 370.176 253.12 369.03 253.12H365.794V267.016H368.322ZM369.873 286.116L369.928 286.19L369.988 286.259C370.294 286.616 370.721 287.519 370.721 289.557C370.721 291.62 370.327 292.656 369.983 293.122C369.77 293.413 369.426 293.701 368.552 293.744V285.468H369.03L369.036 285.468C369.114 285.467 369.384 285.465 369.873 286.116ZM368.322 296.556C368.399 296.556 368.476 296.555 368.552 296.553C371.837 296.45 373.479 294.118 373.479 289.557C373.479 287.224 373.007 285.509 372.063 284.411C371.187 283.244 370.176 282.661 369.03 282.661H365.794V296.556H368.322ZM429.22 314.066L429.241 314.064L429.262 314.061C431.228 313.816 432.872 313.517 434.08 313.129C434.665 312.94 435.336 312.674 435.914 312.261C436.45 311.878 437.448 310.962 437.448 309.422V279.367C437.448 278.93 437.498 278.65 437.548 278.478C437.583 278.468 437.622 278.458 437.666 278.447C438.107 278.343 438.812 278.263 439.847 278.263C441.851 278.263 444.544 278.707 447.995 279.701C449.797 280.22 451.263 280.618 452.38 280.889C453.369 281.128 454.396 281.351 455.117 281.351C456.977 281.351 458.455 280.395 459.511 279.106C460.51 277.886 461.232 276.265 461.786 274.466C462.911 271.025 463.636 267.772 463.929 264.715C464.203 261.857 464.347 259.458 464.347 257.546C464.347 254.805 463.195 252.493 461.074 250.815C458.877 249.021 455.554 248.461 451.881 248.461C447.828 248.461 443.835 249.513 439.928 251.536C438.124 252.439 436.527 253.486 435.204 254.699C434.623 252.828 433.326 251.451 431.599 250.596C429.816 249.713 427.603 249.387 425.184 249.387C420.485 249.387 416.062 250.198 411.94 251.846L411.924 251.852C409.984 252.642 408.338 253.478 407.129 254.395C406.041 255.221 404.629 256.628 404.629 258.679V309.422C404.629 310.592 405.055 311.667 405.84 312.511C406.564 313.289 407.478 313.751 408.335 314.041L408.401 314.064L408.469 314.083C409.367 314.337 410.567 314.478 411.913 314.565C413.308 314.656 415.041 314.7 417.095 314.7C421.297 314.7 425.339 314.489 429.22 314.066ZM439.847 275.456C437.555 275.456 436.106 275.799 435.499 276.485C434.96 277.171 434.69 278.132 434.69 279.367V309.422C434.69 310.177 432.769 310.795 428.926 311.275C425.151 311.687 421.207 311.893 417.095 311.893C413.05 311.893 410.421 311.721 409.207 311.378C407.994 310.966 407.387 310.314 407.387 309.422V258.679C407.387 257.375 409.241 255.968 412.949 254.459C416.724 252.949 420.803 252.194 425.184 252.194C429.634 252.194 432.128 253.429 432.668 255.9L433.679 260.634H434.387C434.407 260.577 434.429 260.52 434.451 260.464C434.792 259.582 435.285 258.748 435.93 257.962C437.14 256.49 438.884 255.184 441.162 254.047C444.735 252.194 448.308 251.268 451.881 251.268C455.454 251.268 457.948 251.851 459.364 253.018C460.847 254.184 461.589 255.694 461.589 257.546C461.589 259.331 461.454 261.629 461.184 264.443C460.915 267.256 460.24 270.31 459.162 273.603C458.151 276.897 456.802 278.544 455.117 278.544C454.443 278.544 452.319 278.029 448.746 277C445.173 275.971 442.207 275.456 439.847 275.456ZM473.397 255.594L473.388 255.601C466.173 261.05 462.869 269.922 462.869 281.426C462.869 294.118 466.009 303.691 473.193 309.006C476.458 311.495 480.099 313.231 484.094 314.21C488.005 315.168 492.581 315.626 497.784 315.626C508.049 315.626 516.546 312.878 522.97 307.1L522.983 307.088C529.536 301.116 532.598 292.387 532.598 281.426C532.598 276.083 532.005 271.36 530.754 267.311C529.54 263.317 527.911 259.985 525.769 257.473C523.686 254.952 520.943 253.032 517.648 251.659C514.551 250.34 511.452 249.48 508.356 249.102C505.363 248.669 501.832 248.461 497.784 248.461C488.057 248.461 479.853 250.76 473.397 255.594ZM530.754 267.311L530.752 267.305L528.121 268.148L530.756 267.319L530.754 267.311ZM474.829 306.747L473.175 308.992L473.193 309.006L473.21 309.019L474.829 306.747ZM474.829 306.747C468.694 302.218 465.627 293.777 465.627 281.426C465.627 270.447 468.762 262.59 475.032 257.855C480.897 253.464 488.481 251.268 497.784 251.268C501.762 251.268 505.166 251.474 507.998 251.885C510.829 252.228 513.694 253.018 516.593 254.253C519.559 255.488 521.919 257.169 523.672 259.296C534.194 272.067 528.121 298.72 521.144 304.996C515.346 310.212 507.56 312.819 497.784 312.819C492.728 312.819 488.38 312.373 484.74 311.481C481.099 310.589 477.795 309.011 474.829 306.747ZM495.762 267.016C495.223 267.496 494.717 269.006 494.245 271.545C493.773 274.015 493.537 277.549 493.537 282.146C493.537 286.744 493.773 290.278 494.245 292.748C494.717 295.218 495.189 296.694 495.661 297.174C496.2 297.654 496.874 297.894 497.683 297.894C498.56 297.894 499.234 297.654 499.706 297.174C500.245 296.694 500.717 295.218 501.121 292.748C501.593 290.278 501.829 287.19 501.829 283.484C501.829 279.71 501.728 276.828 501.526 274.838C501.391 272.78 501.189 271.202 500.919 270.104C500.717 269.006 500.414 268.148 500.009 267.53C499.402 266.638 498.661 266.192 497.784 266.192C496.975 266.192 496.301 266.467 495.762 267.016ZM497.804 295.431C497.806 295.436 497.804 295.432 497.797 295.419L497.804 295.431ZM497.683 295.087C497.71 295.087 497.734 295.087 497.756 295.086C497.776 295.034 497.797 294.974 497.82 294.904C497.827 294.883 497.834 294.861 497.842 294.838C498.017 294.289 498.209 293.456 498.401 292.286L498.407 292.249L498.414 292.212C498.841 289.98 499.071 287.086 499.071 283.484C499.071 279.738 498.97 276.971 498.783 275.127L498.777 275.076L498.774 275.025C498.643 273.021 498.454 271.639 498.244 270.785L498.224 270.703L498.208 270.621C498.049 269.754 497.849 269.303 497.726 269.106L497.71 269.083C497.676 269.167 497.635 269.276 497.589 269.414C497.395 269.991 497.179 270.858 496.955 272.067L496.952 272.08C496.531 274.285 496.295 277.607 496.295 282.146C496.295 286.685 496.531 290.007 496.952 292.212C497.178 293.395 497.389 294.255 497.575 294.838C497.606 294.933 497.634 295.016 497.66 295.087L497.683 295.087ZM497.813 268.862C497.813 268.862 497.81 268.867 497.805 268.875C497.811 268.865 497.813 268.862 497.813 268.862Z" fill="#1A1A1A"/>
<path d="M165.786 276.897C165.786 279.779 165.684 282.661 165.482 285.543C165.28 288.356 164.909 291.238 164.37 294.189C163.83 297.14 163.055 299.679 162.044 301.806C161.033 303.933 159.752 305.854 158.201 307.57C155.1 311.001 150.55 312.716 144.55 312.716C142.506 312.716 140.674 312.439 139.054 311.885L137.587 313.982C162.917 322.638 170.224 296.714 168.336 270.017L165.753 273.709C165.775 274.657 165.786 275.72 165.786 276.897Z" fill="#1A1A1A"/>
<path d="M127.164 328.886C131.631 328.268 132.08 328.202 134.741 327.214C135.951 326.766 135.501 322.103 135.258 317.313L132.718 320.944V324.347C132.718 324.92 131.594 325.393 129.344 325.769L127.164 328.886Z" fill="#1A1A1A"/>
<path d="M138.786 311.79C137.168 311.104 135.954 310.314 135.145 309.422C135.089 309.36 135.033 309.298 134.978 309.236C133.395 307.459 132.473 305.874 132.213 304.482L132.112 303.453H131.303L132.718 312.716V320.944L135.258 317.313C135.184 315.871 135.13 314.416 135.145 313.062C135.977 313.404 136.791 313.71 137.587 313.982L139.054 311.885C138.964 311.854 138.875 311.822 138.786 311.79Z" fill="#1A1A1A"/>
<defs>
<linearGradient id="paint0_linear_1372_1308" x1="284.464" y1="213.643" x2="284.464" y2="330.607" gradientUnits="userSpaceOnUse">
<stop stop-color="#FFEE56"/>
<stop offset="1" stop-color="#FFC700"/>
</linearGradient>
<linearGradient id="paint1_linear_1372_1308" x1="284.464" y1="213.643" x2="284.464" y2="330.607" gradientUnits="userSpaceOnUse">
<stop stop-color="#FFEE56"/>
<stop offset="1" stop-color="#FFC700"/>
</linearGradient>
<linearGradient id="paint2_linear_1372_1308" x1="284.464" y1="213.643" x2="284.464" y2="330.607" gradientUnits="userSpaceOnUse">
<stop stop-color="#FFEE56"/>
<stop offset="1" stop-color="#FFC700"/>
</linearGradient>
<linearGradient id="paint3_linear_1372_1308" x1="284.464" y1="213.643" x2="284.464" y2="330.607" gradientUnits="userSpaceOnUse">
<stop stop-color="#FFEE56"/>
<stop offset="1" stop-color="#FFC700"/>
</linearGradient>
<linearGradient id="paint4_linear_1372_1308" x1="284.464" y1="213.643" x2="284.464" y2="330.607" gradientUnits="userSpaceOnUse">
<stop stop-color="#FFEE56"/>
<stop offset="1" stop-color="#FFC700"/>
</linearGradient>
<linearGradient id="paint5_linear_1372_1308" x1="284.464" y1="213.643" x2="284.464" y2="330.607" gradientUnits="userSpaceOnUse">
<stop stop-color="#FFEE56"/>
<stop offset="1" stop-color="#FFC700"/>
</linearGradient>
<linearGradient id="paint6_linear_1372_1308" x1="284.464" y1="213.643" x2="284.464" y2="330.607" gradientUnits="userSpaceOnUse">
<stop stop-color="#FFEE56"/>
<stop offset="1" stop-color="#FFC700"/>
</linearGradient>
<linearGradient id="paint7_linear_1372_1308" x1="284.464" y1="213.643" x2="284.464" y2="330.607" gradientUnits="userSpaceOnUse">
<stop stop-color="#FFEE56"/>
<stop offset="1" stop-color="#FFC700"/>
</linearGradient>
</defs>
</svg>
