<svg xmlns="http://www.w3.org/2000/svg" width="175" height="175" viewBox="0 0 175 175"><defs><style>.cls-1{fill:#1398ea;}.cls-2{fill:#fff;}</style></defs><g id="Шар_2" data-name="Шар 2"><g id="Шар_1-2" data-name="Шар 1"><path class="cls-1" d="M87.5,0A87.5,87.5,0,1,0,175,87.5,87.5,87.5,0,0,0,87.5,0Z"/><path class="cls-2" d="M113.422,62.2039a4.999,4.999,0,1,0,4.7857,4.9951A4.8994,4.8994,0,0,0,113.422,62.2039Z"/><path class="cls-2" d="M140.6291,83.1067a8.7943,8.7943,0,0,1,6.6465,2.8667,9.4623,9.4623,0,0,1,2.747,6.9375v19.8853h9.5713V92.91a20.2552,20.2552,0,0,0-5.41-14.0625,18.483,18.483,0,0,0-26.937.0049,19.6688,19.6688,0,0,0-5.5835,14.0581v19.8853h9.5713V92.9109a9.5782,9.5782,0,0,1,2.7471-6.9365A8.7927,8.7927,0,0,1,140.6291,83.1067Z"/><path class="cls-2" d="M108.6359,112.7039h9.5718V73.0252a7.0863,7.0863,0,0,1-9.5718.0005Z"/><path class="cls-2" d="M34.7248,112.7962a18.2726,18.2726,0,0,0,8.42-2.0347,24.1768,24.1768,0,0,1-6.0269-8.3237l-.0029.001a10.8055,10.8055,0,0,1-2.39.3686,10.0169,10.0169,0,0,1-9.7481-9.7959V83.0144H35.3459V73.0252H24.9772V62.2039H15.4059l0,31.46C15.9425,104.387,24.4284,112.7962,34.7248,112.7962Z"/><path class="cls-2" d="M57.7668,112.7962A18.0542,18.0542,0,0,0,71.2375,106.97l.7978-.8325.7979.8325a18.4842,18.4842,0,0,0,26.9409,0,19.6712,19.6712,0,0,0,5.583-14.0586V73.0257H95.6979V92.91a9.4552,9.4552,0,0,1-2.7436,6.9331,9.0556,9.0556,0,0,1-6.7393,2.8711,8.6812,8.6812,0,0,1-6.6465-2.8667A9.58,9.58,0,0,1,76.8214,92.91V73.0257h-9.66V92.9119a9.4575,9.4575,0,0,1-2.7471,6.9365,9.1388,9.1388,0,0,1-13.2934,0,9.5819,9.5819,0,0,1-2.7476-6.9375V73.0257H38.714V92.9119A19.6675,19.6675,0,0,0,44.2965,106.97,18.0592,18.0592,0,0,0,57.7668,112.7962Z"/></g></g></svg>